{"title":"Hunter X Hunter - 137 [Hi10 720p] [ENG SUBBED] [GWC].mp4","uid":10523223,"size":70403987,"categoryP":"video","categoryS":"tv_shows","magnet":"?xt=urn:btih:d079518f8c97396fe3733b7412a6e91d054c6602&amp;dn=Hunter+X+Hunter+-+137+%5BHi10+720p%5D+%5BENG+SUBBED%5D+%5BGWC%5D.mp4&amp;tr=udp%3A%2F%2Ftracker.openbittorrent.com%3A80&amp;tr=udp%3A%2F%2Fopen.demonii.com%3A1337&amp;tr=udp%3A%2F%2Ftracker.coppersurfer.tk%3A6969&amp;tr=udp%3A%2F%2Fexodus.desync.com%3A6969","seeders":1,"leechers":1,"uploader":"canc232","files":1,"time":1405012071,"description":"Thumbnail Image: &lt;a href=&quot;\nhttp://i.imgur.com/X0gqiYF.jpg&quot; rel=&quot;nofollow&quot; target=&quot;_NEW&quot;&gt;\nhttp://i.imgur.com/X0gqiYF.jpg&lt;/a&gt;\n\n\nMEDIA INFO :\n\nGeneral\nFormat : MPEG-4\nFormat profile : Base Media\nFile size : 67.1 MiB\nDuration : 21mn 4s\nOverall bit rate : 445 Kbps\n\nVideo\nFormat : AVC\nFormat profile : High &lt;a class=&quot;__cf_email__&quot; href=&quot;/cdn-cgi/l/email-protection&quot; data-cfemail=&quot;023332424e362c33&quot;&gt;[email&amp;#160;protected]&lt;/a&gt;&lt;script cf-hash='f9e31' type=&quot;text/javascript&quot;&gt;\n/* &lt;![CDATA[ */!function(){try{var t=&quot;currentScript&quot;in document?document.currentScript:function(){for(var t=document.getElementsByTagName(&quot;script&quot;),e=t.length;e--;)if(t[e].getAttribute(&quot;cf-hash&quot;))return t[e]}();if(t&amp;&amp;t.previousSibling){var e,r,n,i,c=t.previousSibling,a=c.getAttribute(&quot;data-cfemail&quot;);if(a){for(e=&quot;&quot;,r=parseInt(a.substr(0,2),16),n=2;a.length-n;n+=2)i=parseInt(a.substr(n,2),16)^r,e+=String.fromCharCode(i);e=document.createTextNode(e),c.parentNode.replaceChild(e,c)}}}catch(u){}}();/* ]]&gt; */&lt;/script&gt;\nFormat settings, CABAC : Yes\nFormat settings, ReFrames : 10 frames\nDuration : 21mn 4s\nBit rate : 369 Kbps\nMaximum bit rate : 2 871 Kbps\nWidth : 1 280 pixels\nHeight : 720 pixels\nDisplay aspect ratio : 16:9\nFrame rate mode : Variable\nFrame rate : 23.976 fps\nStream size : 55.6 MiB (83%)\nTitle : Hunter X Hunter - 137 [Hi10 720p] [ENG SUBBED] [GWC]\nWriting library : x264 core\n\nAudio\nFormat : AAC\nFormat profile : HE-AAC / LC\nDuration : 21mn 4s\nBit rate mode : Variable\nChannel(s) : 2 channels\nSampling rate : 48.0 KHz / 24.0 KHz\nStream size : 10.8 MiB (16%)\nLanguage : Japanese\n\nText\nFormat : Timed Text\nTitle : [GWC]\nLanguage : English\n","torrent":{"xt":"urn:btih:d079518f8c97396fe3733b7412a6e91d054c6602","amp;dn":"Hunter+X+Hunter+-+137+%5BHi10+720p%5D+%5BENG+SUBBED%5D+%5BGWC%5D.mp4","amp;tr":["udp%3A%2F%2Ftracker.openbittorrent.com%3A80","udp%3A%2F%2Fopen.demonii.com%3A1337","udp%3A%2F%2Ftracker.coppersurfer.tk%3A6969","udp%3A%2F%2Fexodus.desync.com%3A6969"],"infoHash":"d079518f8c97396fe3733b7412a6e91d054c6602","infoHashBuffer":{"type":"Buffer","data":[208,121,81,143,140,151,57,111,227,115,59,116,18,166,233,29,5,76,102,2]},"announce":[],"urlList":[]}}